/* XPM */
static char *_bcce00c9b074216c846228a5d27a8d5GvZ2u30cMJ6W1Qy8[] = {
/* columns rows colors chars-per-pixel */
"42 42 122 2 ",
"   c #4C4236",
".  c #46413D",
"X  c #4C443C",
"o  c #50473C",
"O  c #554A3C",
"+  c #594D3E",
"@  c #464344",
"#  c #4A4543",
"$  c #4E4844",
"%  c #45444B",
"&  c #48474C",
"*  c #4B494C",
"=  c #554C41",
"-  c #594E42",
";  c #544E48",
":  c #5D5244",
">  c #5C534B",
",  c #474750",
"<  c #4B4B54",
"1  c #4E4F58",
"2  c #514F53",
"3  c #4F5059",
"4  c #565253",
"5  c #5B5552",
"6  c #52525C",
"7  c #59565A",
"8  c #5C595D",
"9  c #625545",
"0  c #655846",
"q  c #61564A",
"w  c #655A4C",
"e  c #6A5D4B",
"r  c #645B53",
"t  c #6A5E53",
"y  c #685F58",
"u  c #6D604F",
"i  c #6D6154",
"p  c #6C635B",
"a  c #726553",
"s  c #766956",
"d  c #71665B",
"f  c #75695B",
"g  c #7A6D5E",
"h  c #565661",
"j  c #5A5A65",
"k  c #5E5E69",
"l  c #635F61",
"z  c #605F68",
"x  c #666164",
"c  c #6B6463",
"v  c #62616D",
"b  c #6A666B",
"n  c #6E686B",
"m  c #736963",
"M  c #796D62",
"N  c #756D6D",
"B  c #7C726D",
"V  c #676774",
"C  c #696772",
"Z  c #676875",
"A  c #696976",
"S  c #696978",
"D  c #6A6B7A",
"F  c #6B6B7A",
"G  c #6B6B7B",
"H  c #6C6C7B",
"J  c #6C6C7C",
"K  c #6D6D7D",
"L  c #6F6E7C",
"P  c #6E6E7E",
"I  c #6F6E7E",
"U  c #716C72",
"Y  c #736E74",
"T  c #726F77",
"R  c #777073",
"E  c #797276",
"W  c #7C7475",
"Q  c #7E7777",
"!  c #787379",
"~  c #7B757B",
"^  c #7F7779",
"/  c #7D777D",
"(  c #7E787E",
")  c #837B7B",
"_  c #6F6F80",
"`  c #6F7081",
"'  c #707081",
"]  c #717182",
"[  c #717183",
"{  c #717283",
"}  c #727283",
"|  c #717284",
" . c #727284",
".. c #737385",
"X. c #747486",
"o. c #767587",
"O. c #7C7781",
"+. c #7C7985",
"@. c #757689",
"#. c #767789",
"$. c #787789",
"%. c #797888",
"&. c #7A788A",
"*. c #7D7B8A",
"=. c #7A798D",
"-. c #7E7D90",
";. c #7E7D91",
":. c #817B80",
">. c #827D84",
",. c #827D85",
"<. c #827D88",
"1. c #827F8C",
"2. c #817E8F",
"3. c #827F8E",
"4. c #817F91",
"5. c #85818D",
"6. c #828193",
"7. c #858291",
"8. c #868496",
"9. c #888594",
"0. c #86859B",
"q. c #898799",
/* pixels */
"V V V V V Z V V V V V V k h < % 5 > % & & < & < < & < < & < < < < < , , , & r A Z V ",
"V V V V V V A V Z V V j 1 , , # u i - $ $ # # @ # @ @ @ @ @ % @ @ % % @ @ # q C A C ",
"V Z V V V V V V V j 3 < % @ ; i Q :.( / E R N N m p p y t y t r q w r > q 9 w z V V ",
"v v V V V V V k h < , @ X : m R @.| ' ' | | X.| @.@.@.@.$.%.%.$.&.&.4.*.2.,.i r h k ",
"h h h j h h 6 1 < @ X : p U K K D A A S A A V A Z Z S S A Z A S S K S J I | y r h h ",
"1 < 1 1 < < , & . + t N K K A Z Z Z D A Z Z V V Z V V Z A Z V A V V V V C J l q 6 1 ",
"& & & % @ . .   9 c A H S A V V Z Z Z Z Z A Z V V Z Z Z Z Z V V v v k k h 6 4 q 2 & ",
"o o - q q 9 0 e j h h j k v v v v v v v v v v V V v z V z k j j 1 1 1 < & & X e : o ",
"^ ,.7.8.8.6.W r < < < < 3 < 1 < < 1 6 6 1 1 1 6 1 6 6 < 6 < < & % . .   o O w M B W ",
"=.@.' ' ' I n w ; @ @ @ @ @ @ . . @ @ # @ @ @ # @ @ . # # . o = : y c N E / +.$.$.&.",
"A A A S S I n i a i w q w w r w r t y y y y y y y t w u m ~ ,.6.6.4.&.' _ K S S A Z ",
"V V V V Z K C a / 5.2.2.2.6.6.6.4.4.;.4.4.4.4.4.4.q.2.f +.4.&.K S J Z A V V V V V V ",
"V V Z Z V S A d H K K ' ' I K K _ K H K K K ' I ' ' | r C _ S A V C Z Z V V Z V V Z ",
"V V V V A S A i H I K K K A A A S V Z V Z V G G I _ b 0 C _ A Z V V Z V V V V Z V A ",
"V V V Z Z S A d R K K Z A V V V V V V V V A Z V K K A 0 C J A V Z V V V Z V A A S Z ",
"Z V V V Z A A d J J A Z V V V A V V V Z V V V C C I A q b Z V V V V V V V A A S Z Z ",
"V V V V V v z t A K V V V V V V V V Z V V V V S V v z q y k v v V V V A V V V V V V ",
"z V v k k j 2 w n V Z Z V V Z Z V V V V V V V z k j 6 9 2 1 h h j j j j k k v k V k ",
"6 1 1 1 1 < , r j j j k v V V z v v z v k k j j 6 1 2 9 % , < < < 1 1 1 1 1 1 1 3 3 ",
"% % @ % % @ # q 8 h h h j j j j j h h h 6 1 1 < , % * e - . @ % @ @ % @ & % % % % % ",
"= O + O O + 0 a 7 6 h h 6 7 6 1 1 < < , % % # . o - i M M t 0 - + + O o = - : : : - ",
"8.2.2.<.<.<.) a > < < < < < , & @ @ . o = r c Y ) 2.2.6.4.4.4.4.2.2.5.5.M ) q.q.q.q.",
"' ' ' ' ' ' _ m w # @ @ # # O O 9 e N :.2.4.4.;.@.X.' I J J K K ' ' ' $.f U X.' ' | ",
"A A A A Z Z S U a 0 q y m Y ! +.N a X.$.' ' _ K H A Z V V V V A A S K H i x K A Z Z ",
"A Z V V Z V V A f ) q.6.&.X.' ' l t J _ _ V V V V V V V V V A V Z V S I e x H V V V ",
"V Z V V V V V C i R ' H Z S K I d t J J V V V V A V V V V V V V V V A A w n D Z V V ",
"V V V V V V Z v w n G C Z Z C S p t S Z V V V V V S V V V V V V V V A A w x H Z V S ",
"Z v V V V b V 8 q U V V Z Z V S l t V V V V V V V S V V Z V V Z Z V A A e x S Z V V ",
"V V V V V V V 4 t A V V v v V S d r b V V V V V V V V V V V V V Z V V Z t x S V V V ",
"V V V V V Z z 5 t S V V S V V A y w z z v V V V V V V V V V V V b Z V V w x Z V V V ",
"V Z V V V V k > y V V V K S V A y q 1 h h j j k k k z v v v z v v k z j w x V Z V V ",
"V V V V z k h w y z V V V V V A y > % , , < < < < < 1 1 6 1 6 6 6 6 6 < > x V V V V ",
"k k j h 1 < < 9 ; 6 j z V V V V t u + O     X X . . @ @ @ @ @ % @ % % % > 5 k v k v ",
"< < , & % @ o e ; & , < 6 h j j 0 ) ) ) W W B M d d d t t y q q 9 : - 9 i 4 1 1 < < ",
"# $ > > q t d B M r # # & & , < ; N 0.;.*.;.;.;.4.4.4.4.7.9.9.9.9.5.>.>.M > @ # @ # ",
"E ~ +.@.*.*.@.X.$.4.W m w = # # q p I I ' K K K K K H K I I K ' } X.X.%.) a e i d N ",
"| ' J J J S J J S J _ $.$.O.N d s p K I J S S V A Z Z Z A A A S A L H I ~ g ,.*.&.@.",
"S S Z V Z Z V V V V V V A K X.+.M p K H V V V V V V V Z V Z V V V C A G T s K ' K S ",
"Z Z C V Z Z Z V V V Z V V V V z d c S S V V V V V V V V V Z Z Z V V V A A s n ' A Z ",
"Z V V V Z Z C V V V V V V V A z y y V V V V V V V Z V V A A A Z V V V V z i c A A V ",
"V V V V S S V V V V V V V Z V 7 r r j v v V V V V V V V V V V V Z Z v j 3 r p S V V ",
"Z V V V Z S V V V V Z V V V k 1 5 r < j h 7 j j j k k k k k v k j j j 6 < > r A Z V "
};
