/* XPM */
static char *_3337f9580d145e38ac68bf62ce3537bLxLSAkazL35MZlQO[] = {
/* columns rows colors chars-per-pixel */
"42 42 155 2 ",
"   c #090907",
".  c #0F100C",
"X  c #10110F",
"o  c #141511",
"O  c #191914",
"+  c #1E1E19",
"@  c #1F211B",
"#  c #22231D",
"$  c #242824",
"%  c #292B24",
"&  c #2C2F29",
"*  c #302C25",
"=  c #3A2E2A",
"-  c #2E3127",
";  c #2E322D",
":  c #32342D",
">  c #3A322A",
",  c #3F392E",
"<  c #363534",
"1  c #3E3531",
"2  c #353831",
"3  c #3C3D33",
"4  c #3E3F39",
"5  c #423632",
"6  c #433C35",
"7  c #483B35",
"8  c #463C39",
"9  c #4A3F3C",
"0  c #563B37",
"q  c #3F4033",
"w  c #3E423B",
"e  c #414236",
"r  c #484337",
"t  c #44453A",
"y  c #4A443B",
"u  c #47493D",
"i  c #4C4A3D",
"p  c #54443E",
"a  c #514B3E",
"s  c #6A463E",
"d  c #3F4844",
"f  c #424641",
"g  c #4B4641",
"h  c #464B44",
"j  c #4B4D44",
"k  c #474D48",
"l  c #4A4F49",
"z  c #5B4641",
"x  c #514E43",
"c  c #4D5146",
"v  c #4D534A",
"b  c #4C594F",
"n  c #525346",
"m  c #5A5347",
"M  c #565947",
"N  c #53554B",
"B  c #59564A",
"V  c #55594D",
"C  c #5A5B4D",
"Z  c #4F5750",
"A  c #545751",
"S  c #595752",
"D  c #555C52",
"F  c #5B5D52",
"G  c #5B5D59",
"H  c #624741",
"J  c #654B44",
"K  c #6F534A",
"L  c #605A4F",
"P  c #72554C",
"I  c #72594E",
"U  c #625E53",
"Y  c #6A5D53",
"T  c #635E5C",
"R  c #735D52",
"E  c #5E614E",
"W  c #566156",
"Q  c #5D6155",
"!  c #566258",
"~  c #5D635A",
"^  c #5E685B",
"/  c #626255",
"(  c #686056",
")  c #666956",
"_  c #686957",
"`  c #63645B",
"'  c #6A655C",
"]  c #65695D",
"[  c #6A6A5D",
"{  c #776155",
"}  c #77655A",
"|  c #726B5C",
" . c #78695E",
".. c #5F6163",
"X. c #646663",
"o. c #6C6765",
"O. c #666B62",
"+. c #6B6D63",
"@. c #6B6D6C",
"#. c #716C61",
"$. c #7D6E62",
"%. c #716D6A",
"&. c #6E7166",
"*. c #6D726C",
"=. c #737365",
"-. c #7A7365",
";. c #767966",
":. c #7B7A66",
">. c #74746C",
",. c #7A756B",
"<. c #75796D",
"1. c #7C7D6D",
"2. c #706E73",
"3. c #6C7074",
"4. c #6F717B",
"5. c #737671",
"6. c #787671",
"7. c #747A73",
"8. c #7B7E72",
"9. c #72747C",
"0. c #7F797A",
"q. c #817D6E",
"w. c #7E816F",
"e. c #768275",
"r. c #7E8175",
"t. c #7E8379",
"y. c #7B8B7F",
"u. c #83836D",
"i. c #818375",
"p. c #838876",
"a. c #8A8975",
"s. c #82857A",
"d. c #84897C",
"f. c #8A8D7B",
"g. c #8E937F",
"h. c #91927D",
"j. c #8D9385",
"k. c #87988A",
"l. c #8E9C8D",
"z. c #949584",
"x. c #959985",
"c. c #9D9B85",
"v. c #949B8B",
"b. c #9C9F8A",
"n. c #9BA28E",
"m. c #93A294",
"M. c #9DA491",
"N. c #A3A48E",
"B. c #A2A593",
"V. c #A4A997",
"C. c #AAAA96",
"Z. c #A7AA99",
"A. c #A8AC9C",
"S. c #B0B09D",
"D. c #ACB3A1",
/* pixels */
"h.B.Z.V.B.B.8.B V c n U ` U O.,.6.6.+.) F F / Q C C M n n m B B C Y Y <.m.n.n.N.C.A.",
"u.c.B.v.z.i.` A A V N S N B ` o.2.o.X.X...X.X.O.&.[ F F F ` ` T T %.%.>.7.d.g.h.N.Z.",
"u.n.z.#.` j g n c a n g g x x i n x N N n N V C / Q M x N V S n G T ' +.U / +.1.x.C.",
"u.M.i.N n N N e e t t e t t t t w e t y t t t t u t t t t t t w w t 4 w v N m [ h.N.",
"r.v.&.` @.>.>.O.l x N v N N V v c c N N C C B B B B V V V B v v v f k ~ &.O.C ] p.N.",
"f.j.F G <.s.i.t.5.A N G Q Q Q Q V D D D W E / / / U T ~ / ~ Q W Z D @.t.r.&.F F ;.n.",
"&.+.V j ~ 8.t.t.s.7.A A ~ ~ ~ D D D N N M D Q Q F / ] ] / Q G N D @.t.d.s.+.N ~ _ =.",
"V ` F g f X.8.i.8.s.7.V N G ~ Q ~ D v v n V D N G / / / ~ F v A &.s.s.f.8.N t G ..A ",
"~ @.G v f h X.q.0.t.s.5.A A ^ ~ D N v n m F G A V F U Q F N A &.i.d.s.e./ h u G X./ ",
"T 4.X.A l j j ] t.r.0.t.7.A G ~ ~ v j j n V D F G F F F n A +.d.f.f.8...v j g G X.G ",
"G 3.G A V V x j ] 7.7.8.t.5.D Q D V v j h j V F / F F v A +.d.f.f.q.^ c c t q V ..A ",
"C ] B V F F F j k X.8.t.t.y.7.G D D N v v B F Q Q F n N [ i.i.d.<.G q 6 : # # q V n ",
"E O.Q M C / / Q j j ^ t.t.r.d.7.D W C V C Q Q Q F n V [ q.i.q.6.F 3 3 & @ @ # - 3 u ",
"_ +./ N V ~ / Q V j k X.8.e.e.t.7.D Q W Q ^ Q V l A ' -.R ;.[ A 7 > * # X X O % ; q ",
"=.' C N V ^ Q W N v k k ` 8.i.i.y.7.V D Q / G n A ( -.{ J ` g 6 r > # O .   X # - e ",
") +.F B D ~ V w 2 4 v j k ] 1.i.t.d.<.F Q F x V ` K R } Y p 5 y a 5 # O .   X # ; u ",
"_ @.Q V W Q b ; . $ k V k k ] y.t.i.i.5.A n A Y I s I | B 7 6 y i i 2 # o o + < h F ",
"O.*.Q C C ^ V w $ 2 k A G k k O.8.r.:.r.<.F Y { R Y } F x a y i n n t : $ # $ t S / ",
"] o.C V W ^ ^ b k v N D Q v h h ^ <.1.8.1.=.-.q.-.#./ j M M a a j n n v t , q V %.O.",
"` =.L V V ^ ..^ W W W W W D b h h ~ 8.e.e.1.-.-.;.G n B C n a i i n E Q C c u &.0.#.",
"/ +.F C G ^ ^ ^ W D W D b ! W b d d &.r.1.1.-.,.X.j M C C a a a y n B F C j j ;.d.=.",
"F %./ C F ` / ~ C W ! D W ! ! b h j [ 8.i.1.1.i.5.N B C C n y y t y g V V x N 6.5.( ",
"G X.F B C G Q D W ^ ! ! ..! W v v ` 1.i.i.q.u.d.s.5.V B C n n x y y g c B n j F X.S ",
"B ~ F B C F Q Q W ! W ! ! b v A O.e.p.p.:.=.q.d.t.t.>.B n B C B a i x m C v u V ~ N ",
"N ) M B C / / Q ~ W W W D v v O.e.s.p.;.V h ] d.t.t.t.5.N N F B n x j x C v t n C j ",
"M Q M V C ( / / Q Q ~ G Z b +.e.r.p.<.Q j h h ^ t.d.s.s.5.A V S j t 3 : N h e t u t ",
"E ) E M C ) / U U F A v D @.t.8.i.e.^ v n V v c O.y.d.s.s.9.N n & % w w V c t r 1 , ",
") &.E C F X./ U L F N A +.t.d.s.e.` v C Q E Q v v O.r.q.i.q.5.A w w D ~ W c q t = > ",
"_ [ C V F ] ` L m 0 z o.i.s.d.r.` n F / E Q Q V k k ] 8.i.0.j.3.A N G N v c e y 6 y ",
"/ o.T C U ) U C p z Y  .1.s.1.^ N C Q Q V N W V N j k X.i.q.0.t.7.N n w & k g y 5 r ",
"` 9.T F C / C p 0 J $.$.q.8.~ v V W V N N b b D D A j j O.r.t.t.s.4.v h d k t 9 5 7 ",
"o.3.] C C F p z H H K $.-.` v E E N b k c v b G Q G S j j ] t.t.t.s.*.V D v t y y a ",
"U 2.%.S n x v Y P P P Y T B C / E V v h u h b V Q / / C x k O.t.t.s.t.*.V h e t 8 y ",
"` q.%.N k N ' -.R } $.S x F E Q Q C V v h c N V F / / / F j j ` t.s.r.t.@.u q 8 8 p ",
"U 5.U j j [ 1.p.q.=.G x C E C E C E E V W F F E Q W ~ / Q V j k O.i.t.r.t...e u g i ",
"q.#.B n / p.i.r.<.~ n F Q E C C C E Q ^ E / / ^ W Q ~ Q Q Q D v k ] r.t.r.>.V g T r.",
"v.z.B Q <.p.r.<.~ n M Q E Q C C / / Q W ~ / ^ / Q ^ ~ W D Q ~ A v k ] 1.i.*.V n d.D.",
"j.C.=./ &.<.&.A f j n n c N v M V M C M V C V V N N V v A v D v v t w G <.O.C ( x.D.",
"a.N.a.T [ [ / V C V C C F F E V C F Q F Q / U G Q C F V D W C D A V N C ] ] F [ h.S.",
"q.c.b.q.>.~ ~ G N V T ' U ` / C F U ' +.<.*.` F Q F F F C n n M M C &.+./ +.8.i.x.C.",
"1.g.M.M.V.v.5.3...G G U o.%.T T ` ' 6.8.q.6.%.] +.O.X._ [ Q E Q / &.i.<.y.k.l.v.b.V.",
"1.w.r.i.a.z.1.U D i x m ' } ' ' ' L ' =.[ T U C C E C M E C M C V _ / O.y.e.e.r.d.v."
};
