/* XPM */
static char *d53ffe1274c84cf29ccfcb3c71744dcfyGnJOauJ5mwBDQ6E[] = {
/* columns rows colors chars-per-pixel */
"42 42 70 1 ",
"  c #0D0701",
". c #0F0901",
"X c #130C03",
"o c #180F04",
"O c #1D1306",
"+ c #201507",
"@ c #221708",
"# c #251909",
"$ c #2B1D0B",
"% c #301F0C",
"& c #2F200C",
"* c #34240E",
"= c #3A260F",
"- c #372710",
"; c #382710",
": c #3C2A11",
"> c #412D12",
", c #452E13",
"< c #463114",
"1 c #473114",
"2 c #483013",
"3 c #483214",
"4 c #4B3315",
"5 c #4C3415",
"6 c #4D3415",
"7 c #4D3516",
"8 c #503717",
"9 c #523817",
"0 c #553917",
"q c #533918",
"w c #543A18",
"e c #553B18",
"r c #573B19",
"t c #573C19",
"y c #593D19",
"u c #5A3E1A",
"i c #5E3F1A",
"p c #5D401B",
"a c #5F401B",
"s c #60411B",
"d c #60421C",
"f c #63431C",
"g c #63441C",
"h c #64441D",
"j c #66461D",
"k c #68471E",
"l c #69471E",
"z c #69481E",
"x c #6A481E",
"c c #6B481E",
"v c #6D4A1F",
"b c #6E4A1F",
"n c #6D4A20",
"m c #6E4B20",
"M c #6F4B20",
"N c #704B20",
"B c #704C20",
"V c #714D21",
"C c #744F21",
"Z c #754F22",
"A c #755022",
"S c #765022",
"D c #775022",
"F c #7A5223",
"G c #7A5323",
"H c #7B5324",
"J c #7B5424",
"K c #7C5424",
"L c #7D5424",
"P c #7E5625",
/* pixels */
"XX*=====# X.X%=====$XXX*======oXX@=======+",
"O4GHHHLLk+.X:DKDFFD2XX,GKGKKKF;.$kGGGGGLz$",
":vGjiiijG:X:DGZKGGZ:O*FNasaaad*%uGGGGGNs9+",
"GGj:*-=-5%*ZGm55555;@iKa***;**O,JS9454,**O",
"SJn:;:::*O>GGk*;=**$OmFk:*::;*X,GZ>*:****@",
";$*#OOOOOo+*%$$;#@@Oo$%*#@OOO@X#&*+OOO+@OO",
"j7q7#X:w88888*O+o,i8w88,#$@X*>w8885@XO:59q",
"KLLw##uLLLLLLZ*X:kKKKKKD>oO*iVLLLJL5X>VGLL",
"uwj,O:ZZiuuuuu:$kKSattuu:*;gHvuuttgq@aLZau",
">-:-@avk4*:***@*Hmw*-::*;:gJJV>**-:-#jGS:*",
"##@@O*$-*-*:**OO:$@@#$@###:<,>$@####X;,>$*",
"X#::::$$OOO@$%$####OXo$::&#&$*OX$:::::::OO",
"$iZHHZSk:$O;jZGGGGZwOO9SSuauuj:O<SJSSSSM:O",
"mLVqq>>>-O#jH5wkjkkd$*zLHSzu>9$:VSzq:<:t:#",
"LLd-**-*-o#mS>--:::$XdJvq<=**=X,LS<-::-::O",
"ua4$*-:*$X*VH-$**$$$Ozjg>***$$X*a<*-;*$::O",
"OXXO#OOOoXO=>OX$@#$;**@##$*O+$$$$+OO$O#$$$",
"kmvj#.#avzzkkv>X#wVZvjzzsOO=8NVVVv*XX#wVVV",
"HHLu##4SFGZZGv:$iZHZZSGVv$*vJGZVSSz$#sk959",
"ggg:#:VLj::>::$*LHk4<::::+uGGa::>::$*Gv:**",
"**&$+>55:**=**O$t4:*****$X0Vvd:***>*&vm4**",
"o@@@O#O@+OXX++OO#O@OXOO@@O#$$#+O$$$OO$##$@",
"@wjgjddj5*XO5<:::::*OO*:,dsdj9:O$ww0djgjiO",
"8SVHGKGLS*.OuKSBSVV:@<taidjGSa5O>JLLKGJJgO",
"HSjw4448uO*5mau3554=$vz:;*:5<-&#sLJu4455<O",
"SHs=-**-=$,GS9=:**=*@vJj:*>**;:O0s0:**-**+",
"*=5$**#O+O@***$%O@@+O***OOOOOOo.XoO**&&#OO",
"88>=XX@*8995s3>X#58888wa:O.X#:::>:>#XX@:8w",
"HZGjX$wmZGZVGGzO&VJSvvvvz&o*dJVNmmV,X$5SKV",
"u4q:XiHm40<4uu*O5SS9::;:*@*sdi:=;::+@jJzh8",
"*:-*XiLV:=:***O$SKS<:--;*@>Gvu:*:*;@$LL5::",
"$$@@X=,,*$$+##OO,,>:#*#@OO$,<,$###@XO><%#$",
"O&-::::::*XO*:::::*4$O$::;:$$$#XX%$$##$#@X",
":5jHGZGZD#O=iGDDSZSz+*GGGGZiiu;X$ZZZDZamwX",
"4zVkuskwD$$8Zh>>><4,X,GVkkkcmw*XrKk>:ua58X",
"HLm>*:*:<o,V0::::*=$ovGv>*=;:=$okPw*:5>*;X",
"ui8%$$$OX.=9$&&&$$$$X:Nj4**:>:O$rr*$$**$X.",
"OXXXXXXo@>555OXOX#q8$+*##@@$$585885%X XX#:",
"kvv:.X#ivGLJHN-X#kLLNkzzm>ohmKKPcZFNOX%*wK",
"ZZZjo#5VZZVZZG:X:Vj0kZSSZ5,GNrrd:>av#*2dhj",
">:>:+0GN:>:>:5:$VGV8>>:>:+iH9:,:**5>OiZZ,;",
"O+@+X%=*+#O++#@O===@+O+OOO$:##+++O#+X$==$@"
};
