/* XPM */
static char *_d1e3609e78e4722a85332f6f9ada51f358SFNXHKJC0P2Jr[] = {
/* columns rows colors chars-per-pixel */
"42 42 49 1 ",
"  c #141724",
". c #171A26",
"X c #181C27",
"o c #171C28",
"O c #1A1E29",
"+ c #1D212C",
"@ c #1F2331",
"# c #20252F",
"$ c #212531",
"% c #252A35",
"& c #292D37",
"* c #272C39",
"= c #2A2E3A",
"- c #2D323C",
"; c #30353E",
": c #2F3540",
"> c #323641",
", c #353A44",
"< c #383C46",
"1 c #373E48",
"2 c #3A3D49",
"3 c #3D434C",
"4 c #40454F",
"5 c #41484F",
"6 c #444652",
"7 c #454B54",
"8 c #484C56",
"9 c #4B4E59",
"0 c #475057",
"q c #495157",
"w c #4D535B",
"e c #4F585E",
"r c #50565E",
"t c #51595F",
"y c #515660",
"u c #555E63",
"i c #585F66",
"p c #5A5F69",
"a c #576065",
"s c #596266",
"d c #5B6469",
"f c #5F696D",
"g c #636C73",
"h c #677276",
"j c #687078",
"k c #6D787D",
"l c #737D84",
"z c #758086",
"x c #89979C",
/* pixels */
"++,>;+XOOOO++++++XOXXXX+X++++OOOOOOOOOO#+O",
"+$89u73335-O++++;53555575-X#O#<5=2222<$O++",
"+%yifuurr9r;O+o;aqqdaddddw;.;ttdusssstr&O+",
"O<uutuuuaru0+%5tuaauaataua92taaauuuuuau4##",
"O<9uauuuuaau:%duauuauaatuua,qsuaiurrituw++",
"O2ruuauauuau-%duauauuuaaaus;7duuuir797ur;X",
"O-ruutuauuuuw>:uuuauauaauua;qduui99967us2X",
"#Owsu9uuuuuuuu%uaauauatauaa-qsuauir697us2+",
"O#9sr7uuuuuswgu1duuuauuuuai;9siaaat6ttus7.",
"X<uu97uusuuard9@wuuuusuuuup;&duuuaattsud5O",
"%qaaeqauuaauu9-+*8uddysdssu;-ztsauaasius3O",
";auuuuuuuuauuw>o@:3376235498%ktauauuuuuut-",
"-aatddddsuaus7*1w633333,O+#O#wtaauaauausq#",
";aaaq75qtdssw*6diddddddauw63o;tauauuuuus3X",
"#7aq&43,;3<3$&duuuuuuuuuudtr;-tauuauauua5+",
"###&adssrq76*sauatwauuuuuuii8#4ddaaauast#+",
"+O&uutuuisf=ixria06uauuuauus7O%-,waastt3++",
"+Xuu6tsuuuu%lgtiw699uuuaauua3@+$&>-+3&O+++",
"Xwd86usuus96giiiuyuyuuuuuuawd**udsu4333*++",
" gdwuuuauuur<8wiuauaauaaauaaj@0suuaddda1++",
"O-uuuauuauus==99aauuuuauuuus3@ysuuiauuuu;+",
"+%uuuuauuauu<X-9wusadauuuuui8@wsuuyruuud4+",
"+%adusuuuusu9%O$>61,:wddssui0@wsuuu88uuu9*",
"+@36wtaaiuur5%4->1,u3%3713uy,*tauuu08yuuw3",
"+++ -9ruuau7%68udddus07603::O1duiuusr6uuu,",
"++%3**499ut$1r9uuuuuasdddiy2O3suuuuaaau8d<",
"++7du4+&48,-w7rsuusueauuuuj1+3fuiiiisi98;*",
"+-waud9-OO-3w7tauuuw60suuutw%:1>>,,,,,>$+$",
"+1wuuussw%3q8uaauuu98wauuuuw%+++$%3076>#++",
"OOwsuauud:7twsuuauusaauuuuu9$:99ywudsr91++",
"O<wuuauad%-9uuuuauuuauuusui2$69isauuusr8%O",
"$2uuauua*-1%2usauuauuuuwww2*6uiiuuauuar94O",
"O2duuud7-rdq#,8uauwaau8wiu:iuuuuuuauuuu9,o",
"O4iuupq;9uusw;%<rwruuuu93:,uauuuauuauusu6%",
"-u9f4%>9uusussr=17ussu6O%wiuuuuuauuauuuu9:",
">sww24uuuuuuuuiu31-31>#=tduusuuuuuauuuuu8*",
";u0uftsuaua98uuudu972O%uauuauuuuauuauuuu8=",
"%w0aw9iuuui86uuuuw9r;X4taauuusuuauauaau7y;",
"O*6qr5wusauuwuiiuu7+&O-7wususuuuuusuuuuus;",
"+O%tst769uudssrww7+%d93%7909uuuuuuwwsdssu-",
"++O$tssu90qkh71=5#O&q7q5*7rwwr9999r75555,O",
"+++O%;;>;,,-;+O#++++oOO;;%;7dq*-==;$XOXXO#"
};
