/* XPM */
static char *_960a4fcc52a414fc0c7c32d2f1367a4kACMBQT4U4AHPL54[] = {
/* columns rows colors chars-per-pixel */
"42 42 99 2 ",
"   c #010000",
".  c #0A0604",
"X  c #0E0906",
"o  c #110A06",
"O  c #1D0B00",
"+  c #150D09",
"@  c #180F0A",
"#  c #1A110B",
"$  c #240F01",
"%  c #290F00",
"&  c #251002",
"*  c #22150E",
"=  c #3C1A05",
"-  c #231710",
";  c #271810",
":  c #2B1B12",
">  c #311E15",
",  c #342116",
"<  c #392316",
"1  c #362318",
"2  c #3B2519",
"3  c #3F281B",
"4  c #451D04",
"5  c #431F0A",
"6  c #43220E",
"7  c #4D250C",
"8  c #572301",
"9  c #5A2502",
"0  c #56280C",
"q  c #5A2A0C",
"w  c #412616",
"e  c #4A2610",
"r  c #452817",
"t  c #442A1D",
"y  c #492E1F",
"u  c #562E16",
"i  c #512F1B",
"p  c #4E301F",
"a  c #54311D",
"s  c #5B341D",
"d  c #612600",
"f  c #632D0B",
"g  c #692E09",
"h  c #733107",
"j  c #7D3405",
"k  c #76340B",
"l  c #7A380F",
"z  c #663617",
"x  c #63361A",
"c  c #6C3919",
"v  c #743915",
"b  c #7B3D16",
"n  c #452D20",
"m  c #4B2F20",
"M  c #4E3121",
"N  c #533423",
"B  c #593624",
"V  c #5B3926",
"C  c #533728",
"Z  c #563929",
"A  c #5E3B28",
"S  c #643A22",
"D  c #6B3E24",
"F  c #643E2A",
"G  c #67402C",
"H  c #6E442F",
"J  c #70452F",
"K  c #6A4631",
"L  c #724730",
"P  c #764932",
"I  c #7A4C34",
"U  c #7F5037",
"Y  c #7D5139",
"T  c #823503",
"R  c #843807",
"E  c #8C3A05",
"W  c #823809",
"Q  c #8A3D0B",
"!  c #943A01",
"~  c #823D12",
"^  c #804F36",
"/  c #835137",
"(  c #855339",
")  c #89563B",
"_  c #8D583D",
"`  c #945C3E",
"'  c #8D5C41",
"]  c #945E41",
"[  c #985F40",
"{  c #966144",
"}  c #9B6344",
"|  c #9D6648",
" . c #9F684A",
".. c #A26645",
"X. c #A46B4B",
"o. c #A96E4E",
"O. c #AD704F",
"+. c #AD7151",
"@. c #B17453",
/* pixels */
"                                                                                    ",
"  ; > @ # : 3 w 9 d = * 2 2 : # # # @ ; 2 2 2 : # 2 ; ; 2 2 2 : # 2 2 : - 2 * : ;   ",
"  : i 0 q B D v h ! f 1 V F N 2 > 2 t t M M B m 1 B 2 t F A N t t m V t , y t B 2   ",
"  * f ! T c v h < k q , N V B y < M B y , : M M 2 N , t B N 2 y N 2 N t : , N B ,   ",
"  8 ! T 6 h g < N V r : > N t 2 N , : 2 M > y B M , ; t N , m B B B B 3 2 N 2 > *   ",
"  d Q c h ! 9 . @ # + . . + X . + X . X @ . + # + . . o + . + @ @ # @ o - B : 3 ,   ",
"  7 ~ v f 9 5 > > o # 1 > > 2 t : + * , > > > , : o ; , , t 1 , ; X ; + @ B y B 2   ",
"  , z h 6 X , I P > y I / I _ [ L : N I I ( I / L : B I / } / P F : K 2 @ B N B 2   ",
"  # , 6 j $ : I L , t ( +.( _ ` H : M I Y +._ ` | : Z I I ` / I V : } C + B 2 M 2   ",
"  , z h 7 o , I H > t _ @.( P Y H : N P Y +._ ] X.> Y { I U P P V : | Z . 1 M B 2   ",
"  : u 0 : . , Y ' 2 t _ @.( L P G : N P I X.) ( Y : '  .L P ] _ V : ' M X t t B 2   ",
"  * < , : . : ) +.t t ( +./ L Y I : M I I [ ( P G : ) | P P +.| V : ( y + B 2 N 3   ",
"  2 A M , . , ) +.n t / { I L _ o.1 M P I [ ( P G ; P ` P I o.} A : / t @ B B B 1   ",
"  2 M 2 p + : ) +.n t / { ^ L _ o.2 m I I [ ( I G ; ' } L P { ` B : / y @ B 3 , *   ",
"  : < , B @ : ) +.n t / ` ^ J _ o.1 M I I [ ( P G ; ' X.P P ` _ A : / m @ B f w @   ",
"  * , , y + , ( +.n t / [ / I [ o.1 m P I { ( P G ; ( } P I ` _ B : ( n X a E f -   ",
". > m : > X : ' +.t t ( ` ^ ) ..o.1 M I I [ / I F : P ` L I ` _ F ; ( y . > T b 1   ",
"  w m > p @ : ( +.t t ^ [ ^ ' ..[ > M P I [ / I F : P ` P P ` _ V : / y . > B ~ 9   ",
"  : n p B # : ' ..t r ^ [ ^ ) .._ > M I I [ / P F : P _ D I ` _ V : ( n O g k ! d   ",
"  @ t V m o : ^ ] 2 r ^ [ ^ _ ..} 1 m I ^ [ / P F : P ` I I ` _ V ; ( n % ! ! T 4   ",
"  * n m , X > ^ ] < t ( [ ^ ) ..X., p P I [ ( P F : D ' P I ] _ V : U t & T ! q #   ",
"  2 m 1 M @ > ' ] < t ^ [ ^ ' ] P : N P I [ ( P F ; F ^ P I ] _ A ; G < . 6 T v 1   ",
"  2 B m B # > ^ ] 2 r ^ [ I ' ] K : N P I [ / _ ' : B P ^ D ` _ A ; F , . : x G 3   ",
"  2 F A m @ > I ( 2 B ] ( ^ ' } K : N P I ) ^ ] X.> B I P I ` _ B ; F , O 0 B N :   ",
"  1 V N > X > I L > K +.P L | o.F : C D ^ D F {  .> V ' I I ] ' B : G , $ j s t *   ",
"  # > 1 N @ > I H > K +.I L | o.D : C I I I ^ {  .: Z ]  .I ] ) A ; F , # B 1 p 1   ",
"  # : > N @ > I L > F o.I L  .o.I > m '  .' I {  .: C [ o.^ ] ) A ; A , # B M t ;   ",
"  : t t B @ > P L > L +.I L ]  .H > m ] +.I F }  .> B [ o.^ ` _ B ; G , X y V M ;   ",
"  2 A N N + < ( L > K +.^ I ] ] H : m ] +.^ F { [ > B [ O.^ ] ) V ; G 2 . 1 N G 2   ",
"  2 M : : . N O.L > K +.I F } o.L : m ] X.' D ] ' : B [ o.^ ] ) A ; S , @ B V A 2   ",
"  * t M : . Z +.I : F } I F  .+.F ; m ' ..^ D ) ' ; B ' [ ^ ` ) A ; G , @ B 2 M 2   ",
"  : t t t o Z +.I > B [ I I X.@.D ; m ' ] ' D ) ( ; s ) ` ^ ` _ V * G 1 X 3 t B 2   ",
"  2 M 2 M + M o.L > B { I P ] } H : M ) ` I P ( ( : B ( _ I ` _ V ; G , . 2 B G 1   ",
"  2 A N , . n } P : B ` I P P I H : M ) ` I P ) ( : V I P P ` _ V ; F , @ B V A 2   ",
"  * y B M + M +.I : M / P P I I L : M Y / I P _ ) : V I I I { _ F ; G , @ Z V A 2   ",
"  : N B t X - M , + # , , > > > : + # , , > : 2 2 o ; > , , 2 3 ; o ; + # B y N 2   ",
"  2 B M 2 # X + . @ # # # & O # @ . O & @ # # o . X + @ @ @ @ X X # # X * y > y 2   ",
"  2 y , N < t N , a B N B R v Z M , g l B N B y : > y B B B B 3 , N Z t : : > p 2   ",
"  2 M : , p B S T E f , < T b N 2 M S a , , , 2 N N 2 y A B 3 t p < B B y , p V 2   ",
"  : y y : 2 3 r 0 v x y y c a t M A A B p g u B S F 2 , y A M B B M B G B M V G 2   ",
"  X : 1 * # # # # , 2 2 3 2 ; - 2 2 2 2 2 9 e 2 2 2 ; # # 2 2 2 2 2 2 2 2 2 2 2 ;   ",
"                                                                                    "
};
