/* XPM */
static char *_8ba29ac05904c6fe937c3b14408b92fwHRxYVqdGIX6eULH[] = {
/* columns rows colors chars-per-pixel */
"42 42 126 2 ",
"   c #3D3D36",
".  c #3D3D39",
"X  c #403E3A",
"o  c #3D4534",
"O  c #3F4538",
"+  c #43433E",
"@  c #434B3C",
"#  c #4A563D",
"$  c #4E5B3E",
"%  c #454643",
"&  c #494745",
"*  c #474A44",
"=  c #4A4B46",
"-  c #464B48",
";  c #4C4D4A",
":  c #504E4C",
">  c #4C5245",
",  c #4F5A43",
"<  c #4E524C",
"1  c #4E5C48",
"2  c #505647",
"3  c #525D45",
"4  c #52534D",
"5  c #58574F",
"6  c #545B4E",
"7  c #595B4F",
"8  c #504F50",
"9  c #4F5251",
"0  c #545452",
"q  c #585753",
"w  c #565954",
"e  c #5A5B55",
"r  c #565959",
"t  c #5B5D5B",
"y  c #605E5B",
"u  c #516142",
"i  c #56624C",
"p  c #5A664D",
"a  c #5B694C",
"s  c #576352",
"d  c #5A6354",
"f  c #576952",
"g  c #5D6B54",
"h  c #5D625D",
"j  c #5F6F58",
"k  c #5E7155",
"l  c #616A57",
"z  c #61635D",
"x  c #636B5D",
"c  c #63735E",
"v  c #69775E",
"b  c #63785D",
"n  c #6D785E",
"m  c #5D5E61",
"M  c #5D5F6A",
"N  c #615F60",
"B  c #5E6462",
"V  c #5F6965",
"C  c #5F636A",
"Z  c #636563",
"A  c #636A65",
"S  c #696B65",
"D  c #64666A",
"F  c #646B6A",
"G  c #6A6D6B",
"H  c #657364",
"J  c #6B7665",
"K  c #657865",
"L  c #6B7A65",
"P  c #66726C",
"I  c #6B736C",
"U  c #6B7B6B",
"Y  c #73746D",
"T  c #737B6C",
"R  c #7A7B6E",
"E  c #656673",
"W  c #676D72",
"Q  c #6A6E73",
"!  c #6C6D79",
"~  c #677171",
"^  c #6C7373",
"/  c #6E7974",
"(  c #6E7479",
")  c #6D7979",
"_  c #727573",
"`  c #737A75",
"'  c #7B7C75",
"]  c #71757B",
"[  c #737B7B",
"{  c #7B7E7A",
"}  c #6D8160",
"|  c #6F816C",
" . c #76836C",
".. c #738273",
"X. c #7A8474",
"o. c #7C8876",
"O. c #76817B",
"+. c #7D837D",
"@. c #7E897A",
"#. c #828174",
"$. c #838D72",
"%. c #83857D",
"&. c #88877F",
"*. c #848B7C",
"=. c #898A7F",
"-. c #829075",
";. c #86917E",
":. c #737581",
">. c #767C81",
",. c #797E82",
"<. c #7C7C88",
"1. c #7C8382",
"2. c #828682",
"3. c #888780",
"4. c #848A83",
"5. c #8A8C84",
"6. c #83868A",
"7. c #858A89",
"8. c #8A8D89",
"9. c #908F83",
"0. c #8C9185",
"q. c #8E918C",
"w. c #929286",
"e. c #929985",
"r. c #92958C",
"t. c #969891",
/* pixels */
"- 9 0 < 4 > & = > > > , ; & & & ; q 5 % X y D S S Z = 2 d 7 4 5 h < % 9 w r r r 0 - ",
"%.5.w.5.0.&.w T  . .} L e Z 3.5.5.5.3.z 0 8.8.3.3.%.p J 0.w.=.5.q.F A @.4.8.r.r.7.h ",
"q.6.6.<.` I e U U K b L h I 8.6.<.] Q y x 1.[ ^ ( P 0 A O.[ / U / r j } O.[ 1.) ^ w ",
"1.( :.:.^ Z 6 H U  .U ^ e Z _ :.:.E W y r ~ W ! P A w V V I ( W F w B P ^ ( ^ ~ V 9 ",
"^ G ! ] ^ Z 4 A G J G S q q S D N E Z 0 ; C D D F Z 4 r B A W F Z 8 r C C M C F B 9 ",
"h t 5 4 : 4 ; t t t t e 0 ; : q q q 0 0 9 0 4 - % * - - < - = & ; & - 9 0 9 0 r r w ",
"8.8.` ; Z 3.=.w.w.w.G G #.' %.9.{ N { &.4.1.*._ & x X.@.&.%.A t { +.{ %.1.I r 7.8.q.",
",.[ ^ ; Y 8.4.5.5.&.z G { <.7.7._ N <.^ ( ( ) P 0 P ) 1.1.O.A A @.1.1.1.[ F m 1.1.,.",
"^ W F : F ` ` [ ^ A > h Q ! ^ ] Z e ` ^ :.] ) F < V ` ,.>.P r h ` ( ! ! ^ B r ^ ~ ( ",
"W G S 4 G _ ^ ! A f , h ^ ] Q G t 1 P F Q ( ^ Z ; h k P G G s s H F C M D r r ~ F W ",
"; ; ; & 8 0 q e p u @ 6 Z z q 5 5 i f t w 6 < < - - > ; 4 5 > < 4 : 0 0 9 & ; 0 0 ; ",
"% t G _ R R Y J a n R  .%.&.%.x _ o.%.+...g 1 c G G B g w > f H Z Z Z r t S S Z t t ",
"t %.8.q.q.r.8.U a $.5.*.X.4.%.Z O.@.[ [ | a g  .1.7.2.X.S 6 ;.e.r.q.7.Z _ 1.+.2.8.7.",
"r _ Q ` [ [ ^ h 6 ` / U K I A e H ^ ~ P H u i H O.1.[ ^ Z e +.2.1.1.[ h G _ 1.1.,.{ ",
"4 S P ^ ] _ G h w ^ U J H G S t I F F G A $ i H ) [ ( Q z 0 ) >.>.` F t Z ` <.%.+.' ",
"@ w e t t e t e - t h d z t t 4 w e w w 6 = , B Z B t t : 0 h B Z B B 0 9 t h d p 6 ",
"x S x > = x S Z x x e t _ ' { ' S : y Y ' ' ' ' Z 8 q q q y t 8 t h Z t 0 ; @ i a a ",
";.4.4.h z *.+.1.%.$.Y G q.8.8.2.+.t %.t.t.8.7.7.S G 8.w.w.e.3.y 4.0.r.q.5.{ < X.;.;.",
"/ ^ ^ w t A V D E P A I [ >.1.+.H e ' 2.O.[ ,.{ q S <.1.1.1.( t ` O.1.( ^ F q U J J ",
"P H A q < S V V W I Z G / / ` ` S e I ^ ^ ( >.] q D ` ` >.) I e ^ ^ ( W F Z 4 H b c ",
"l l g > O w s s Z Z t t Z h t t t 4 Z Z h Z Z y : h ^ ~ ~ F Z 0 F A D D B t * h h d ",
". % = & + o @ = w w e t 0 ; ; q y z z z 4 q I Y Y ' G 4 t Z x B Z Z 0 t z t t x h e ",
"; %.=.=.5.%.x w 3.q.r.r.8.t Y w.&.{ { ` s l 2...` ` ^ 0 1.7.4.2.2.+.r _ 2.2.6.1.@.+.",
"w *.` Y ` ` h e 4.{ ,.1.+.t ^ ` I D D V e x [ G F ^ F < [ 7.1.[ ( F ; ^ ^ ! :.>./ P ",
"w ` F F ^ ( d w 2.^ W ! ^ q z A A F F A e B / G F ~ F ; A ~ ^ W E V 9 ^ V E E W F G ",
"9 A Z t A G r < G F F F Q 0 = z B h t q = ; h w t B z + - 0 r m h r 9 B B r m t t t ",
"Z t 0 ; = ; = & 0 t t 0 4 : + : = + + * - w w ; * + 4 e 5 5 e ; - < 9 < - - : & 0 t ",
"8.5.3.R : G { { { +.' q G &.#.=.&.t = +.5.5.0.7._ = +.0.*.%.4.^ H o.o.O.+.4.{ N 5.8.",
"_ Q Q Z : Q { ] ! F F 0 2.{ I [ ` t q +.O.` >.O.G = ` 1.P ^ [ A H ......` [ F Z ] G ",
"Y Q D N 5 S ] ! E M B q ` ` _ ( S s 2 U / ,.1.) A * A F G P P i f K K P ^ ^ t h I G ",
"G D S Z 0 t Z Z N N Z 0 S ^ G G A a # f H ` [ _ V * h F / / J i 1 f g V B h 0 t A D ",
": : & ; ; : : 8 q q 0 & ; 0 4 4 3 u $ , 2 0 ; % + + = = = = 1 * o O * * * % & ; ; 8 ",
"y q Y R #.#.' #.Z : I ' ' ' Y S w X.$.*.3.#.& ; ' #.#.R Y w @ g g h A A > 9 Z P S S ",
"] Z q.3.+.+.' ] Z y 8.0.0.+.I G Z 4.%.+.6.1.t A 1.+.1.' T B w 5.4.*.4.1.r ^ 1.7.4.+.",
"Z y 8.] ] ! D A y y '  ...I V A t P F ` 7.6.t h A W ] Q D w w [ 1.:.P / w V ^ ` P A ",
"Z t %.] Q F F G N e v l c H F B 0 F F ] >./ e w B Z Q W A < 1 H ) >.F F 9 h F x l c ",
"t 8 e 6 q 0 e q 4 2 p i i 3 4 ; & 4 < & ; ; * + * - < 2 ;   @ < r m t r 8 9 4 i i 6 ",
"' #.' _ 0 < Z S S J v a p v T ' _ D & w J Y R Y I ; < h e 5 5 ; O r h Z Z t 2 > l Y ",
"4.8.1.1.w G r.r.r.e.-.J J @.5.8.{ F * ' #.{ +.<.` 4 A 2.4.7.5.^ r 4.2.+.*.4...s ;.5.",
"` ] W ~ 0 ^ 2./ ) ` / h H [ ` ( F C = A A ( ` / S - A ` [ 1.[ B 0 ^ ! W ~ [ I d o./ ",
"~ W W F w Z ^ I ` ^ G t Z ( P ! F D = B I [ _ ( S ; A P ^ [ ( h ; F Q ! ] H h r [ / ",
"h h Z Z q 0 x Z S A Z t h F V t t q % 0 Z Z z Z t * t A V G A t ; h C G Z g d ; B h "
};
