/* XPM */
static char *_07af608be8d40bdb0efa340947d24d0OZGTv9cSodNpoouq[] = {
/* columns rows colors chars-per-pixel */
"42 42 73 1 ",
"  c #3F0B01",
". c #420D01",
"X c #461103",
"o c #4B1404",
"O c #4F1907",
"+ c #501706",
"@ c #521A07",
"# c #561D08",
"$ c #591E09",
"% c #5C220B",
"& c #62260C",
"* c #652A0E",
"= c #6A2B0F",
"- c #6E2E10",
"; c #702F10",
": c #6E3111",
"> c #743312",
", c #793712",
"< c #773915",
"1 c #7C3A13",
"2 c #7A3914",
"3 c #7B3A15",
"4 c #793A17",
"5 c #7C3914",
"6 c #7E3B15",
"7 c #7B3C16",
"8 c #7E3C14",
"9 c #7F3D14",
"0 c #7E3D16",
"q c #7E3C17",
"w c #7C3C18",
"e c #7D3D18",
"r c #7F401A",
"t c #803D10",
"y c #813E10",
"u c #823F12",
"i c #803C15",
"p c #813D16",
"a c #813E17",
"s c #843F17",
"d c #823F18",
"f c #834012",
"g c #854213",
"h c #864117",
"j c #874217",
"k c #874416",
"l c #884516",
"z c #814118",
"x c #834118",
"c c #82421B",
"v c #854319",
"b c #874519",
"n c #84441D",
"m c #84451D",
"M c #894518",
"N c #884419",
"B c #89461B",
"V c #8B471B",
"C c #87481E",
"Z c #8B4819",
"A c #8B481B",
"S c #88491F",
"D c #8D4A1C",
"F c #8C4A1D",
"G c #914F1F",
"H c #8A4B20",
"J c #8C4C20",
"K c #8C4C21",
"L c #914F21",
"P c #925121",
"I c #925123",
"U c #955323",
"Y c #975726",
/* pixels */
"X%&%&%&%@%@o=;;;a,>=*#=;>-=;==;$=>;=;;=;;;",
"@,sMx0Mv>5%o-->5v11,=#>j55a5aiM$<,,<:=;;10",
"%s>&,,>,=,&X-;a>5t>i&@kl,a5i>5P$#0y>1;==xn",
"$j=o-->*o>&o-;L>it,N%o02552a>,I$@0>>0>,,re",
"%ja;>5j>=0$X=>D5jg,k%o3,0jgl,3P$@3;>2t3>S:",
"$ijsa>a,ex$oax0,gg>j%+am;t9jtaI$@0=>;55>S-",
"$avVS;>>nM&X0v1>1j>j%ojH,1-ttsH$*5$&;>>&%>",
"%>MMS>j=nx&@0>,>>t2g%ojPy>>>tji$,>O%;=-#$=",
" >x0S:l>nr*o,,51>1>v%oal>,>=,yy%>:333043;;",
"%e33n;l>nn*o,yt9;,>v%O1,=,,==,0$OoO@OO@@XX",
"%0v,=;0>nz*o52f>>anv%o3;=,a,=;1$.%=&*%$*&$",
"@,,5;;;;29*O,>t;,jYM%@1>;2j1;;1#X->>3>>:-;",
"@,,1>=;;>k*Oa2,>,,ID%X30=>,0>=a#@>.%5j>o+-",
"@,19,,n;=z*Ojy>tj,PV% >r>1;j>jv#@i*>vj5;--",
"$v59,<S=2j*o0>=yv,jM% >tt,>j>nM#@51ast55--",
"o%2>,,D,,9*X,,;9u,Mv& >,1;;s,da#@iat11>a,-",
"@;,;><G9,5*o,y;1g:--7X<33>-,vM>$%35e21y,1=",
"@;11,<Z,05*.ay,1u,>:7X:>>ajjNa-$>5v51gg,5>",
"@>1r,,C,00*oea>>,0H37X>=#;5,;#*$3vDv1lg15,",
"O=,,>,Z15s;.,>;=,05>7O:&@=>=-o-$3dZayfy>>j",
".&,,><S05j*X,5=;,gDa2$=>*>7w3d>$3a1;;9>z50",
".&11,<S,aj=X,a>=,lGa3oXX.XXo &-.0a0=;;>Dd>",
".&11,n3,05&oz0;=,gly3%::<::%-><$%yz=;=>g,;",
" &1,,D>,f>$XCf,;1e99<%>=&>:--%<*@,1>;;>g>-",
" &111F>2u>$oM5,ak5053$,%X-3,>X;*O01,:>,,e;",
".&11yS>1s>#Xe>,tj>Hd3$03->tjs,>*o0,9,1,,M>",
"@2,10D>>5>$X->gj,=Jx3$aa,atas3,*Ov,j9=ggI,",
"&5,,1S>,,0*o>,tvt5Hx3$av5aga>,>*Oxj,,1glH>",
"%1,19J>,a,*X>1,yl0Fv3$zC11g1>a1*O05>y9jN>,",
"%9,11D>912*X;,=1laHx5*jatgg9,s3*@52>t,1s5>",
"*1,19,=,35=X=y,,gjUv>*5aglt5>5,*@05;t>>t3,",
"%125t>;,25*X->y,1jDa2*atggvt5M3*@01;t,,s,>",
"%r9fg1;;,1*X=&;a0v1=3*59,>,1lP0&%03=f>y,,,",
"%zafly>=,1=X>X$>,,$o3*05;,;,kPa=2<00g>g10>",
"Xo*1gg1;,5*X=*=><>--7*vS9y;,z0m=<,Dlg,gyy=",
" +*11lf,,s*.@$@&&&##$%xM1f>09>3=&dPlg,f1i>",
".%-35dly>v*O$$@$@$@o@%,,,3ffgv0&Oe,v5tg>Vd",
".&>,D,l0,e--523535<>>&45>>lklPx*O3-0llg,Hv",
" &idH,a5,0-&-X$-;>@@*&3a>>1kzPj*%7>x,vt23>",
" &1D>,3t5,*&-&*-,,&&*&,ej=>g,a3*7>wH,,,55-",
".-,v>1aj0&.*;;=2,>-;=%,3N5iai,;$>-,e553a,-",
"#--;>>,,>&.=;;;;----=$>--=>5s>;#&---;,,;--"
};
