/* XPM */
static char *_2833eb904d04f2bbe9fa49a4fcc5f96LpsQmu5EvvK1UHHS[] = {
/* columns rows colors chars-per-pixel */
"42 42 241 2 ",
"   c #040201",
".  c #0D0C0B",
"X  c #0E0903",
"o  c #140302",
"O  c #140903",
"+  c #1B0C04",
"@  c #110D0B",
"#  c #1A0E0A",
"$  c #190500",
"%  c #1C1404",
"&  c #13110E",
"*  c #1C120D",
"=  c #171006",
"-  c #0C0C11",
";  c #110F12",
":  c #141312",
">  c #191613",
",  c #1B1A15",
"<  c #15141A",
"1  c #1D1C1B",
"2  c #1B161A",
"3  c #0F1210",
"4  c #220D03",
"5  c #240C08",
"6  c #310905",
"7  c #24130C",
"8  c #2A140D",
"9  c #24170A",
"0  c #34170C",
"q  c #251B14",
"w  c #221E1D",
"e  c #2A1A16",
"r  c #341B13",
"t  c #1F201C",
"y  c #23221D",
"u  c #2A231D",
"i  c #29261B",
"p  c #3A2216",
"a  c #35241C",
"s  c #3D241A",
"d  c #372819",
"f  c #372B15",
"g  c #261E22",
"h  c #242423",
"j  c #2A2524",
"k  c #2B2925",
"l  c #2C2C2B",
"z  c #262A23",
"x  c #352C26",
"c  c #2E322A",
"v  c #393229",
"b  c #322F30",
"n  c #383636",
"m  c #441912",
"M  c #42241D",
"N  c #49291A",
"B  c #552B1B",
"V  c #442C24",
"C  c #4B2C23",
"Z  c #492B26",
"A  c #502C25",
"S  c #493328",
"D  c #573627",
"F  c #4B3933",
"G  c #593A34",
"H  c #683E3B",
"J  c #6C3A31",
"K  c #47443C",
"L  c #584439",
"P  c #52402A",
"I  c #6A4535",
"U  c #63453A",
"Y  c #644637",
"T  c #764B3A",
"R  c #6D4A34",
"E  c #484945",
"W  c #55524C",
"Q  c #5D5D58",
"!  c #584D45",
"~  c #644A42",
"^  c #675547",
"/  c #745244",
"(  c #78584A",
")  c #785A53",
"_  c #72554C",
"`  c #786759",
"'  c #6D6E6B",
"]  c #686865",
"[  c #766D6C",
"{  c #75746D",
"}  c #7D7473",
"|  c #7B7A75",
" . c #777674",
".. c #796E72",
"X. c #8D473D",
"o. c #874D48",
"O. c #865948",
"+. c #875E55",
"@. c #905E5C",
"#. c #985E4A",
"$. c #99644E",
"%. c #886657",
"&. c #936451",
"*. c #936C5C",
"=. c #996956",
"-. c #9B7159",
";. c #856952",
":. c #A4695B",
">. c #A6745C",
",. c #A6634D",
"<. c #8A6D62",
"1. c #9B6E64",
"2. c #8E7769",
"3. c #9B7563",
"4. c #98796A",
"5. c #8C7C76",
"6. c #837E7A",
"7. c #847E74",
"8. c #987C76",
"9. c #A37565",
"0. c #A57A62",
"q. c #AB7B65",
"w. c #A37D6D",
"e. c #A97969",
"r. c #B27E6A",
"t. c #B27F62",
"y. c #A87C72",
"u. c #AA6E63",
"i. c #C37F7C",
"p. c #7E837C",
"a. c #83827C",
"s. c #8B847C",
"d. c #888579",
"f. c #92867C",
"g. c #978778",
"h. c #918870",
"j. c #AB816D",
"k. c #A5816E",
"l. c #BA8365",
"z. c #B4836C",
"x. c #BC8B6C",
"c. c #B68468",
"v. c #AA8473",
"b. c #A78679",
"n. c #B58472",
"m. c #BD8C73",
"M. c #B68978",
"N. c #BD937D",
"B. c #A1977E",
"V. c #C4886A",
"C. c #C48B74",
"Z. c #C78977",
"A. c #D38E75",
"S. c #C2917A",
"D. c #CB9478",
"F. c #D2957A",
"G. c #D59B7D",
"H. c #DB9D7D",
"J. c #D79776",
"K. c #D38D6D",
"L. c #E09C7A",
"P. c #DBA17E",
"I. c #E2A27F",
"U. c #858582",
"Y. c #8B8682",
"T. c #868881",
"R. c #8C8A83",
"E. c #8D8989",
"W. c #938B85",
"Q. c #928C8A",
"!. c #998A84",
"~. c #94928C",
"^. c #9D938B",
"/. c #9A9783",
"(. c #9B9592",
"). c #9C9A94",
"_. c #9B9B96",
"`. c #8F9088",
"'. c #BB8580",
"]. c #A79888",
"[. c #BB9A8A",
"{. c #A59A95",
"}. c #A59D99",
"|. c #AA9E9A",
" X c #A49793",
".X c #AF9689",
"XX c #9EA194",
"oX c #B9A18D",
"OX c #A4A29D",
"+X c #ACA29D",
"@X c #A8A996",
"#X c #B1AB95",
"$X c #ACAAA5",
"%X c #ABA9A4",
"&X c #B2AAA5",
"*X c #B5AEA9",
"=X c #B4B1AD",
"-X c #B8B1AB",
";X c #BAB8B4",
":X c #C99A87",
">X c #DC9D82",
",X c #DD9E8B",
"<X c #D49A87",
"1X c #CC9289",
"2X c #E29E87",
"3X c #CBA189",
"4X c #DDA383",
"5X c #DCA48B",
"6X c #D5A288",
"7X c #C9A896",
"8X c #D9AA96",
"9X c #D9B19B",
"0X c #CDB19B",
"qX c #E5A58B",
"wX c #E4AA8C",
"eX c #E9A689",
"rX c #EEAB93",
"tX c #E4A996",
"yX c #F2AD94",
"uX c #E9B19A",
"iX c #F4B49A",
"pX c #F8B49A",
"aX c #F2A587",
"sX c #DEB7A1",
"dX c #C3B3A6",
"fX c #ECB7A2",
"gX c #FABAA2",
"hX c #C8C7B8",
"jX c #D6D1BC",
"kX c #D3C5B8",
"lX c #D8CFC3",
"zX c #D4D3C9",
"xX c #E3DCCD",
"cX c #DEE2CB",
"vX c #EAE1CD",
"bX c #E9E9D7",
"nX c #F4EBDB",
"mX c #F7F7E9",
"MX c #FDFCF4",
"NX c #FEFCFB",
"BX c #FEF6F4",
/* pixels */
"h.dXNXNXMX@Xp.s.!.W.E.E.(.~.^.^._.). X]..X.X].].^.6...} ......' 6.' [ s.E.!.(.(. X!.",
"2.kXNXNXmX`.7.f.s.W.E.E.(.(.^.].^.{.oX7X7X7X#XoX].5.<...} 6.|  .| ' } Y.Q.~.{.|. X^.",
"h.jXBXBXmXXXd.d.s.~.E.`.~.^.!..X:X7XsX9XuXfXuX7X1X!.8.2.5.d.6.p.6.{ } Y.W.Q. X{. X^.",
"B.xXNXNXmX@Xd.s.s.R.R.~.!.!..X7X9XuXfXrXuXiXuX6X3X:XM.8.8.5.a.T.Y.6.6.R.Q. X X{.|. X",
"].bXNXNXmX@Xp.d.R.d.`.~.f.].0X9XtXtXeXeXeXwX5X6X3X3X'.b.8.7.p.a.T.a.6.R.(.{.}.|.|. X",
"#XmXNXNXbX/.s.T.T.T.R.f.].7XfX8XwXP.H.H.P.P.P.4XP.G.S.n.g.5.p.a.T.a.6.R.(.}.}.{.|.|.",
"@XmXNXMXcXd.d.R.d.`.d.g.oX0X8X5X4XP.J.H.H.J.H.P.4XJ.D.M.y.8.Y.T.U.E.E.Q.{.%X|.+X+X+X",
"hXmXNXNXnX].R.R.`.s.d.g.0X8X5XtX4XH.H.H.H.H.H.4XqXJ.A.Z.r.8.W.Q.T.~.E.Q.{.{.|.+X|.|.",
"cXmXMXMXvX].R.a.Y.s.d..X7XwXwXqX4XG.>X4XP.4XI.P.H.L.J.V.C.4.g.Y.Y.U.R.~._.%X+X+X+X+X",
"hXmXMXNXnX].d.W.R.f.g.oX8X5X5X4XG.D.Z.F.>XP.P.P.K.K.K.V.c.w.8.^.~.`.~.~.{.%X&X%X&X$X",
"bXMXNXMXvX/.d.`.W.s.g.:X3X6X,X>XG.F.F.G.4XG.D.J.J.K.x.l.c.j.4.B.~.~.~._._.%X%X&X&X*X",
"mXMXNXNXzXh.d.`.Q.s.g.3X:X:X<X<XD.F.>XG.H.H.P.J.P.V.l.l.0.h.;.g.`.~.~._.}.%X&X&X&X&X",
"mXMXNXBXvX/.d.`.Y.s.b.3XN.:X8X9XfXtXqX2X>XH.qX6XD.m.m.n.0.3.;.].(._._._.}.%X*X*X*X&X",
"MXNXNXBXjX/.p.d.W.5.b.[.N.8X8X8X:XM.n.D.4XP.G.x.M.n.M.M.v.4.;.g.).OX).OX%X%X*X-X*X-X",
"MXMXNXBX#Xh.d.`.Y.5.b.[.N.x.%./ D D I O.m.m.-.;.D N G U ` ) ` ].OXOXOX%X%X$X-X-X*X*X",
"MXNXNXBXjX-X`.p.Y.5.b.v.*.( C r 0 C D I j.k.R N p 8 8 5 p x ! @X_.XX%X$X*X=X-X-X*X*X",
"MXMXmXMXxX/.T.d.f.5.w.k.( J U L S Z I 9.S.j.R N f p S F v i K @XXX%X%X$X=X;X=X;X=X=X",
"NXMXMXMXzX/.R.`.W.h.k.9.$.%.<.~ M m I 9.J.V.O.B 8 r V G F S ^ ].$X$X$X=X;X;XhX;X=X=X",
"zXzXlXkX+X{ { ' ` h.v.>.9.O.I C Z J #.i.L.i.#.T I G Z A D / ( ( ! W E K E E E n l c ",
"c c x v v k c j y L 3.M.D.r.3.1.*.>.V.K.aXK.,.=.&.1.+.O.&.3.&.C O @ 3 . < 3 3 : < 3 ",
"z z c i j u l j i L 0.z.1X<X1XC.D.qX2XJ.yXA.,.,.j.x.x.S.S.M.1.A * 1 , > > : : : 3 : ",
"z z i i j j k j q L *.e.tXgXqXtXwXiXeXH.aX2X>.,.x.V.V.x.C.z.1.M @ > > & & > & & 3 3 ",
"i y i u j j h w q s *.r.,XrXyXeXgXrX2XaXyXyXV.=.-.x.x.x.c.k.-.r = > : 3 : > & . 3 . ",
"t t j j j w 1 w > r %.u.,XrXpXgXrX>X2XgXrXtXn.:.-.x.c.x.c.>.*.C O : > & & 3 & . X . ",
"t t y w w w > > > 8 +.y.,X2XpXrX,X,XZ.,.l.=.J X.>.x.x.t.q.-.;.9 # @ @ @ : . . . . - ",
", t w t 1 2 > > # 5 ) y.1XtXrXpXtX1X#.+.( D m A M.m.l.l.c.3.Y + @ @ . ; & @ @ . . - ",
", t , 2 2 : & & * o M ) '.8XiXuXtX7X3.R D L G Z 3.D.S.l.>.;.r X # : @ @ . . . . . . ",
", , , > < & & & # # $ V 8.1XfX6X'.+.Y S V N V M N T $.q.k._ + & . . @ @ . 3 @ - .   ",
"> < < < : ; # # & # o e ) [.:X&.V V Z A / @.) A V 6 r U <.V O & @ @ @ @ . . . - . . ",
"X . - - . X X . X X @ + F 2.M.N 6 Z I O.#.:./ D F r 0 S ~ q X                       ",
"h h h g g w w q > w j g V G 4.T J o.u.:.X.o.H _ H H S V a q k h j j j l b n n n n n ",
"l l l l h j y y g g g j g j U <.M.1XZ.Z.1Xi.i.@.@.+.L V 7 g l l l l j j l b b n b l ",
"1 1 > : = > & : . 3 - ; # 7 Z <.9.e.>.o.:.@.H H ^ ~ F f 9 O : - - . . . - 3 . . . 3 ",
"h 1 w > & = & 3 < 3 - @ # q s _ 3.-.T B m 6 6 V ~ F f = = & < < ; ; & & ; : < : : : ",
"h 1 1 > & > & @ 3   3 @ + 5 ) Z %.v.N.m.O.T ( <.` K 9 d & @ < - : & > & 3 : 3 3 : : ",
"1 w 1 , , & & 3 3 3 > O 5 0 2.Y p %.w.j.e.1._ _ L * v L = > - t : < : : : : : : 3 3 ",
"h h h t : & @ = & O * $ o U y.*.p r D S M V x q 9 % ( ( N o @ : : : : : : : : < : ; ",
"t t t < > 3 @ & o + o 4 D 3.y.v.^ q q 7 * 9 * 9 + Y ;.O.T p i : & 3 3 - 3 3 : : : : ",
"t t t t , , , q a % s ) v.9.r.M.w.Z e e u y q O f O.-.&.*.` n W W E K n l h , 3 ; - ",
"h h h z z j x v a p <.M.z.r.r.x.N.<.C 8 * * 9 f ( -.q.-.<.U f Q ' ' ' ' ' ' ] Q E n ",
"l z l z k l x F v L O.*.>.x.C.Z.Z.r.%.I C r Y ;.0.k.w.` S v Q ' ]  . . . . . . .p.p.",
"l l c l c b x F L / %.&.$.>.V.V.A.D.e.=.*.-.k.n.w.+.G S W {  . . .p.U.U.U.U.p.p. .' "
};
